# xmcd CD database file
#
# Track frame offsets:
#	150
#	15750
#	32250
#	51713
#	80213
#	96825
#	118238
#	135788
#	155475
#	174115
#	190088
#	208725
#
# Disc length: 3079 seconds
#
# Revision: 3
# Processed by: cddbd v1.4PL0 Copyright (c) Steve Scherf et al.
# Submitted via: CDex 1.50Beta7
#
DISCID=930c050c
DTITLE=Skip James - Greatest of the Delta Blues Singers
DYEAR=1992
DGENRE=Blues
TTITLE0=Hardtime Killing Floor Blues
TTITLE1=Sick Bed Blues
TTITLE2=Washington D.C. Hospital Center Blues
TTITLE3=Devil Got My Woman
TTITLE4=Illinois Blues
TTITLE5=I Don't Want a Woman to Stay Up All Night Long
TTITLE6=Cherry Ball Blues
TTITLE7=Skip's Worried Blues
TTITLE8=Cypress Grove Blues
TTITLE9=Catfish Blues
TTITLE10=Motherless and Fatherless Children
TTITLE11=All Night Long
EXTD=YEAR: 1992
EXTT0=
EXTT1=
EXTT2=
EXTT3=
EXTT4=
EXTT5=
EXTT6=
EXTT7=
EXTT8=
EXTT9=
EXTT10=
EXTT11=
PLAYORDER=
